<svg xmlns="http://www.w3.org/2000/svg" viewBox="0 0 1024 1024"><defs><style>.cls-1{fill:#fff;}</style></defs><title>AMP BW 5</title><g id="Layer_2" data-name="Layer 2"><g id="Layer_5" data-name="Layer 5"><circle cx="512" cy="512" r="512"/><path class="cls-1" d="M512,1007.85C238.59,1007.85,16.16,785.41,16.16,512S238.59,16.16,512,16.16,1007.84,238.59,1007.84,512,785.41,1007.85,512,1007.85Zm0-980.12C245,27.72,27.72,245,27.72,512S245,996.28,512,996.28,996.28,779,996.28,512,779,27.72,512,27.72Z"/><path class="cls-1" d="M814.68,756.21s-152.1-89-283-134.06C664.63,592.95,783,602.6,783,602.6,810.08,696,814.68,756.21,814.68,756.21Z"/><path class="cls-1" d="M366.35,396.32c-34.49,33.55-69,78.28-95.16,112.3,11-28,27.91-66.31,42.56-94.82,86.47-167.42,198.14-272,198.14-272l.31.31c3.47,3.31,33.41,31.49,75.14,83.62C533.63,256.6,450.77,314.57,366.35,396.32Z"/><path class="cls-1" d="M775.85,577.76h-1.26c-4.88.31-10.08.47-15.75.79-60.32,3.31-159.39,12.44-247,38.9-43,12.92-88.67,31.34-131.2,50.72-14.65,6.61-29,13.39-42.68,20.16-73.24,35.28-128.68,67.88-128.68,67.88s1.89-18.9,7.56-50.09c.95-5.2,2-10.87,3.15-16.7,5.06-25.43,12.21-56.79,22.13-91.6A259.35,259.35,0,0,1,286,510.94a966.61,966.61,0,0,1,91.37-103.29c83.79-81.27,187.54-139.81,228.28-158.46,34.81,44.89,68.61,95.15,104.52,164.6,13.55,26.15,25.36,52.61,35.75,78.44,11,27.41,20.32,54.34,28,79.7C774.75,574,775.22,575.87,775.85,577.76Z"/></g></g></svg>