<?xml version="1.0" encoding="iso-8859-1"?>
<!-- Generator: Adobe Illustrator 19.0.0, SVG Export Plug-In . SVG Version: 6.00 Build 0)  -->
<svg version="1.1" id="Layer_1" xmlns="http://www.w3.org/2000/svg" xmlns:xlink="http://www.w3.org/1999/xlink" x="0px" y="0px"
	 viewBox="0 0 512.883 512.883" style="enable-background:new 0 0 512.883 512.883;" xml:space="preserve">
<path style="fill:#FFD5A3;" d="M484.231,361.048l-128,128c-8.828,8.828-24.717,7.945-35.31-1.766L174.382,339.862
	c-10.593-10.593-17.655-23.835-19.421-37.959l-17.655-116.524c-4.414-26.483,16.772-47.669,44.138-44.138l116.524,17.655
	c14.124,1.766,27.366,8.828,37.959,19.421l146.538,146.538C492.175,336.331,493.058,352.221,484.231,361.048"/>
<path style="fill:#C99744;" d="M185.858,384.883l-30.897-30.897l16.772-16.772c-8.828-9.71-15.007-22.069-16.772-34.428
	L144.368,230.4c-2.648,0-4.414,0-7.062,0c-19.421,0-37.076-4.414-52.966-13.241v251.586l52.966,44.138l52.966-44.138V451.09
	l-35.31-35.31L185.858,384.883z"/>
<g>
	<path style="fill:#DFB789;" d="M338.575,447.559c-2.648,0-4.414-0.883-6.179-2.648c-3.531-3.531-3.531-8.828,0-12.359
		l56.497-56.497c3.531-3.531,8.828-3.531,12.359,0c3.531,3.531,3.531,8.828,0,12.359l-56.497,56.497
		C342.989,446.676,341.224,447.559,338.575,447.559"/>
	<path style="fill:#DFB789;" d="M313.858,422.841c-2.648,0-4.414-0.883-6.179-2.648c-3.531-3.531-3.531-8.828,0-12.359
		l37.076-37.076c3.531-3.531,8.828-3.531,12.359,0c3.531,3.531,3.531,8.828,0,12.359l-37.076,37.076
		C318.272,421.959,315.624,422.841,313.858,422.841"/>
	<path style="fill:#DFB789;" d="M288.258,398.124c-2.648,0-4.414-0.883-6.179-2.648c-3.531-3.531-3.531-8.828,0-12.359
		l56.497-56.497c3.531-3.531,8.828-3.531,12.359,0c3.531,3.531,3.531,8.828,0,12.359l-56.497,56.497
		C293.555,397.241,290.906,398.124,288.258,398.124"/>
</g>
<g>
	<path style="fill:#F3BC5C;" d="M119.651,459.917c-5.297,0-8.828-3.531-8.828-8.828V228.634c0-5.297,3.531-8.828,8.828-8.828
		s8.828,3.531,8.828,8.828V451.09C128.479,456.386,124.948,459.917,119.651,459.917"/>
	<path style="fill:#F3BC5C;" d="M138.189,186.262c-4.414-26.483,16.772-47.669,44.138-44.138l64.441,9.71
		c3.531-11.476,6.179-23.834,6.179-37.076C252.948,51.2,201.748,0,138.189,0C73.748,0.883,22.548,52.083,22.548,115.641
		S73.748,230.4,137.306,230.4c2.648,0,4.414,0,7.062,0L138.189,186.262z"/>
</g>
<path style="fill:#877E6C;" d="M252.065,239.228c-18.538,0-37.076-4.414-53.848-12.359c-43.255-21.186-69.738-63.559-69.738-111.228
	c0-3.531,0-6.179,0.883-9.71c1.766-18.538,7.062-36.193,15.89-52.083l15.007,8.828c-7.945,13.241-12.359,28.248-13.241,44.138
	c0,2.648,0,5.297,0,7.945c0,40.607,22.952,76.8,60.028,95.338c15.007,7.062,30.014,10.593,45.903,10.593v18.538H252.065z"/>
<path style="fill:#DFB789;" d="M225.582,212.745c-9.71,0-17.655,7.945-17.655,17.655s7.945,17.655,17.655,17.655
	c9.71,0,17.655-7.945,17.655-17.655S235.293,212.745,225.582,212.745 M225.582,265.71c-19.421,0-35.31-15.89-35.31-35.31
	s15.89-35.31,35.31-35.31s35.31,15.89,35.31,35.31S245.003,265.71,225.582,265.71"/>
<g>
	<path style="fill:#C99744;" d="M137.306,62.676c-9.71,0-17.655,7.945-17.655,17.655s7.945,17.655,17.655,17.655
		s17.655-7.945,17.655-17.655S147.017,62.676,137.306,62.676 M137.306,115.641c-19.421,0-35.31-15.89-35.31-35.31
		s15.89-35.31,35.31-35.31s35.31,15.89,35.31,35.31S156.727,115.641,137.306,115.641"/>
	<path style="fill:#C99744;" d="M247.651,9.71c-16.772,0-32.662,3.531-46.786,10.593c30.897,20.303,51.2,55.614,51.2,95.338
		c0,13.241-1.766,24.717-6.179,37.076l-7.945-1.766l60.028,8.828c14.124,1.766,27.366,8.828,37.959,19.421l3.531,3.531
		c12.359-17.655,19.421-39.724,19.421-62.676C357.996,59.145,308.562,9.71,247.651,9.71"/>
</g>
<g>
</g>
<g>
</g>
<g>
</g>
<g>
</g>
<g>
</g>
<g>
</g>
<g>
</g>
<g>
</g>
<g>
</g>
<g>
</g>
<g>
</g>
<g>
</g>
<g>
</g>
<g>
</g>
<g>
</g>
</svg>
