<?xml version="1.0" standalone="no"?>
<!DOCTYPE svg PUBLIC "-//W3C//DTD SVG 20010904//EN"
 "http://www.w3.org/TR/2001/REC-SVG-20010904/DTD/svg10.dtd">
<svg version="1.0" xmlns="http://www.w3.org/2000/svg"
 width="2048.000000pt" height="1536.000000pt" viewBox="0 0 2048.000000 1536.000000"
 preserveAspectRatio="xMidYMid meet">
<metadata>
Created by potrace 1.15, written by Peter Selinger 2001-2017
</metadata>
<g transform="translate(0.000000,1536.000000) scale(0.100000,-0.100000)"
fill="#000000" stroke="none">
<path d="M10300 11659 c-716 -77 -1338 -329 -1885 -765 -147 -118 -417 -389
-542 -546 -418 -523 -673 -1138 -753 -1813 -18 -149 -24 -497 -11 -650 41
-495 154 -902 371 -1330 492 -976 1400 -1662 2480 -1874 236 -46 341 -55 660
-56 326 0 437 10 700 61 1078 211 2011 937 2490 1938 554 1157 432 2535 -315
3576 -407 566 -989 1012 -1635 1252 -230 85 -523 158 -780 194 -135 19 -648
28 -780 13z m-610 -939 c0 -21 -4 -28 -14 -24 -8 3 -17 1 -20 -4 -3 -5 1 -170
9 -368 20 -488 23 -434 -26 -434 -36 0 -41 -2 -36 -20 4 -16 0 -20 -18 -20
-20 0 -24 6 -30 53 -16 126 -47 306 -61 357 -32 110 -85 184 -163 226 -51 27
-18 23 43 -6 l38 -19 -23 26 c-54 57 -92 67 -255 71 -149 4 -151 3 -180 -21
l-29 -25 -3 -401 -3 -401 43 6 c181 25 225 87 244 337 l7 98 81 -3 c80 -3 81
-3 84 -30 3 -23 -1 -28 -17 -28 -21 0 -21 -1 -21 -520 l0 -520 -40 0 c-34 0
-40 -3 -40 -21 0 -28 -45 -23 -46 6 -5 141 -34 303 -60 343 -8 12 -12 27 -9
33 4 5 3 8 -2 7 -5 -2 -24 9 -42 25 -33 28 -27 36 12 16 16 -8 13 -2 -10 22
-31 31 -38 34 -108 37 l-75 4 0 -451 c0 -415 1 -452 17 -458 9 -4 19 -1 21 5
2 8 10 7 26 -4 13 -8 63 -19 112 -24 111 -13 114 -14 114 -45 0 -22 -4 -25
-20 -20 -15 5 -20 2 -21 -12 0 -10 -1 -40 -2 -68 l-2 -50 -332 -3 c-319 -2
-333 -3 -333 -21 0 -13 -6 -18 -17 -17 -22 4 -35 72 -31 160 l3 61 40 3 c85 6
145 23 160 46 13 20 15 142 12 942 -1 505 -5 932 -9 948 -7 38 -23 46 -90 46
-50 0 -58 -3 -58 -19 0 -14 -6 -17 -25 -13 -25 4 -25 5 -25 113 l0 109 615 0
615 0 0 -30z m795 0 c0 -18 -5 -24 -17 -22 -14 2 -18 -8 -20 -65 l-3 -68 -82
-5 c-69 -4 -86 -9 -105 -28 l-23 -23 -3 -932 c-1 -512 0 -942 3 -954 3 -13 12
-23 20 -23 9 0 15 10 16 23 l0 22 11 -21 c13 -27 46 -34 162 -34 119 0 182 19
234 69 76 74 122 207 162 469 12 75 24 147 26 160 4 19 11 22 53 22 83 0 111
-9 111 -36 0 -17 -6 -24 -19 -24 -22 0 -23 -17 -41 -440 -5 -129 -13 -277 -16
-327 l-6 -93 -569 0 c-554 0 -569 -1 -569 -19 0 -32 -33 -18 -43 18 -4 18 -7
67 -5 109 l3 77 75 6 c97 8 116 15 124 42 3 12 6 434 6 938 0 815 -2 918 -15
929 -11 9 -12 15 -5 20 16 10 2 37 -23 44 -12 3 -43 6 -69 6 -41 0 -48 -3 -48
-19 0 -31 -34 -19 -41 15 -9 40 -10 179 -2 187 4 4 167 6 362 5 l356 -3 0 -25z
m1129 22 c4 -7 95 -412 287 -1286 36 -160 55 -233 61 -220 4 10 75 348 158
749 83 402 153 738 156 748 5 16 25 17 287 15 l282 -3 3 -27 c3 -22 0 -26 -17
-21 -20 5 -21 1 -21 -66 l0 -71 -67 0 c-91 0 -111 -7 -131 -44 -16 -28 -17
-106 -20 -960 -2 -689 0 -932 9 -942 17 -20 29 -17 29 7 0 21 0 21 18 -2 16
-18 35 -24 108 -33 87 -11 89 -12 92 -38 3 -24 0 -28 -20 -25 -22 2 -23 -2
-26 -65 l-3 -68 -314 0 c-303 0 -315 -1 -315 -19 0 -22 -27 -23 -40 -2 -4 7
-8 57 -9 111 l-2 98 93 13 c82 12 94 17 105 39 10 20 13 205 12 850 l0 825
-63 -305 c-35 -168 -123 -599 -196 -957 l-134 -653 -37 0 c-32 0 -36 -3 -32
-19 3 -14 0 -19 -11 -17 -27 4 -33 17 -55 121 -11 55 -92 433 -181 840 -89
407 -172 799 -186 870 -13 72 -28 139 -33 150 -10 25 -12 -1369 -1 -1500 9
-109 22 -169 45 -199 22 -30 25 -17 9 49 -7 33 -13 71 -13 85 0 14 7 -1 15
-33 27 -112 58 -142 155 -154 45 -5 49 -8 49 -33 0 -23 -4 -27 -20 -23 -19 5
-20 0 -20 -66 l0 -71 -270 0 c-263 0 -270 0 -270 -20 0 -22 -7 -25 -30 -10
-10 6 -15 35 -18 109 -5 110 -8 104 63 116 49 8 117 73 136 130 11 32 14 217
17 904 2 779 1 865 -13 881 -12 13 -13 19 -4 22 7 2 10 11 6 21 -9 24 -157 25
-157 2 0 -8 -8 -15 -19 -15 -20 0 -31 49 -31 141 0 85 -23 79 295 79 156 0
286 -4 289 -8z m1214 -2629 l-3 -158 -2194 -3 c-1646 -1 -2197 1 -2202 9 -9
15 -12 270 -3 292 6 16 150 17 2205 17 l2200 0 -3 -157z m-1612 -292 c28 -16
59 -42 68 -56 20 -31 27 -27 41 23 l11 37 59 0 c58 0 60 -1 63 -27 3 -23 0
-26 -19 -21 l-22 6 6 -199 c4 -109 7 -289 8 -399 l1 -200 -26 -3 c-17 -2 -23
-8 -19 -18 3 -9 -2 -14 -15 -14 -21 0 -25 16 -52 200 -32 209 -96 378 -169
442 l-35 31 29 -7 30 -8 -24 26 c-37 39 -103 37 -141 -4 -62 -67 -94 -206 -88
-383 3 -112 6 -127 31 -170 39 -65 47 -65 26 0 -11 31 -19 68 -19 82 1 19 6
11 19 -28 10 -29 27 -65 38 -80 11 -14 81 -69 157 -122 163 -114 214 -162 256
-240 33 -63 70 -193 69 -243 0 -22 -5 -13 -14 29 -19 87 -50 165 -86 213 -37
50 -45 54 -20 10 28 -49 68 -182 81 -275 8 -54 10 -159 7 -305 -4 -188 -8
-236 -27 -303 -63 -232 -177 -348 -308 -315 -25 6 -63 20 -86 31 l-41 20 34
-28 c18 -15 48 -36 65 -45 43 -25 11 -22 -41 3 -46 22 -136 115 -130 133 6 16
-23 70 -33 60 -4 -5 -15 -41 -25 -81 -14 -59 -21 -72 -38 -75 -14 -2 -21 -10
-21 -21 2 -13 -4 -17 -20 -15 -20 3 -21 10 -27 143 -4 77 -7 287 -8 467 l-1
327 33 6 c18 4 49 5 68 3 33 -3 34 -4 35 -48 1 -25 0 -35 -3 -22 -7 33 -33 28
-33 -6 0 -55 30 -255 55 -364 25 -112 59 -199 95 -245 26 -33 25 -27 -4 38
-35 81 -98 362 -95 424 1 11 9 -24 20 -78 47 -249 97 -375 170 -425 62 -43
134 -9 179 84 51 104 67 321 34 463 -21 93 -59 138 -182 211 -132 79 -180 118
-233 194 -82 116 -120 270 -120 493 0 381 59 584 197 678 31 21 48 25 113 25
66 0 83 -4 127 -29z m1418 -5 c25 -14 55 -40 68 -58 l22 -32 16 54 c15 53 17
55 54 58 61 5 86 -4 86 -33 0 -19 -5 -25 -21 -25 -20 0 -20 -2 -14 -327 3
-181 8 -379 11 -440 5 -110 4 -113 -17 -113 -12 0 -23 -8 -26 -20 -3 -11 -13
-20 -23 -20 -19 0 -26 31 -51 220 -35 279 -88 444 -167 518 l-34 33 28 -6 29
-6 -28 25 c-77 71 -172 -8 -231 -194 -50 -155 -76 -442 -76 -835 0 -405 33
-693 94 -813 38 -76 58 -84 29 -12 -25 64 -64 240 -62 288 0 15 7 -7 15 -49
33 -183 88 -295 165 -334 78 -41 168 67 219 260 19 76 46 257 52 355 l3 45 40
2 c41 1 105 -19 105 -34 0 -17 -17 -34 -31 -31 -11 2 -15 -19 -21 -97 -19
-291 -90 -512 -198 -624 -74 -76 -148 -89 -255 -46 l-60 24 35 -30 c19 -17 44
-35 55 -40 16 -7 13 -8 -10 -4 -68 14 -161 109 -220 225 -51 102 -102 297
-140 540 -26 163 -31 531 -10 710 20 179 57 365 97 490 62 196 173 363 263
396 59 21 153 13 209 -20z m-3709 -18 c6 -19 195 -1303 195 -1327 0 -12 4 -21
8 -21 5 0 21 89 35 198 39 278 146 1047 155 1107 l7 50 435 0 435 0 3 -27 c3
-23 -1 -28 -17 -28 -19 0 -21 -6 -21 -59 0 -63 -7 -71 -71 -71 -15 0 -37 -9
-50 -19 l-24 -19 0 -749 c1 -665 3 -759 18 -848 18 -103 48 -181 85 -225 l22
-25 -21 49 c-22 51 -59 214 -58 256 0 14 9 -14 19 -62 20 -95 59 -189 93 -227
12 -13 37 -30 55 -38 30 -13 37 -12 65 5 79 46 146 187 166 352 14 108 15
1292 1 1374 -7 42 -19 71 -40 98 -25 30 -28 38 -14 38 16 0 16 2 -1 20 -23 25
-39 26 -33 2 4 -15 1 -18 -17 -14 -18 3 -24 13 -29 49 -8 63 -7 145 2 161 7 9
57 12 218 10 l209 -3 3 -27 c3 -22 -1 -28 -17 -28 -18 0 -20 -7 -23 -62 -3
-56 -5 -63 -25 -66 -33 -5 -71 -50 -90 -106 -15 -45 -18 -133 -23 -756 -6
-600 -9 -718 -23 -795 -59 -311 -165 -464 -323 -465 -51 0 -153 29 -183 52
-14 12 -15 11 -1 -6 8 -11 35 -33 60 -49 53 -34 18 -28 -46 8 -107 62 -173
188 -216 413 -7 37 -13 345 -17 877 l-6 820 -42 3 c-35 3 -42 0 -37 -12 4 -10
1 -16 -9 -16 -10 0 -15 7 -12 19 2 11 -3 22 -11 25 -10 4 -14 22 -14 61 0 76
-18 70 -22 -7 l-3 -63 -55 -5 c-54 -5 -55 -6 -66 -45 -9 -30 -13 -269 -13
-932 -1 -882 -1 -892 19 -903 17 -9 20 -8 20 12 l0 22 16 -22 c8 -12 26 -22
38 -22 58 0 86 -12 86 -36 0 -17 -6 -24 -20 -24 -18 0 -20 -7 -20 -65 l0 -65
-205 0 c-176 0 -205 -2 -205 -15 0 -8 -8 -15 -19 -15 -13 0 -20 10 -25 31 -10
52 -7 167 5 175 6 4 34 12 62 18 45 10 52 15 59 43 4 17 7 359 6 759 l-3 727
-114 -829 c-62 -456 -116 -844 -119 -861 -4 -27 -9 -33 -29 -33 -18 0 -24 -4
-19 -15 4 -10 -1 -15 -15 -15 -11 0 -22 6 -24 13 -5 13 -18 98 -140 942 -47
325 -94 646 -104 715 l-19 125 -1 -685 c0 -684 5 -812 34 -857 22 -34 35 -29
24 9 -5 18 -9 44 -8 58 0 18 4 12 14 -21 17 -54 37 -74 85 -86 25 -7 36 -16
38 -31 3 -16 -2 -22 -17 -22 -18 0 -20 -7 -23 -62 l-3 -63 -172 -3 c-145 -2
-173 -5 -173 -17 0 -18 -36 -20 -43 -2 -2 6 -5 53 -6 102 l-2 90 42 15 c50 18
75 58 89 146 13 80 13 1710 0 1734 -14 25 -71 24 -78 -2 -8 -34 -39 -21 -46
20 -8 50 -8 167 1 175 3 4 93 7 200 7 146 0 195 -3 198 -12z m3103 -20 c3 -22
-1 -28 -17 -28 -18 0 -20 -7 -23 -62 l-3 -63 -49 -7 c-89 -12 -81 77 -81 -952
0 -759 2 -916 14 -929 20 -25 29 -21 24 11 -4 25 -3 25 8 7 18 -30 29 -35 82
-35 43 0 47 -2 47 -25 0 -18 -5 -25 -20 -25 -18 0 -20 -7 -20 -65 l0 -65 -205
0 c-176 0 -205 -2 -205 -15 0 -8 -9 -15 -19 -15 -16 0 -21 10 -26 53 -4 28 -5
74 -3 102 l3 50 55 12 c30 6 60 20 67 30 20 26 14 1832 -6 1856 -17 21 -63 18
-69 -5 -2 -10 -12 -18 -22 -18 -22 0 -34 76 -24 161 l7 59 241 -2 241 -3 3
-27z"/>
<path d="M11583 10678 c3 -12 54 -239 112 -503 58 -264 133 -603 166 -754 33
-151 64 -283 68 -294 7 -18 9 -16 14 13 5 24 -18 145 -83 439 -49 223 -125
566 -168 761 -66 296 -82 356 -97 358 -14 3 -16 -1 -12 -20z"/>
<path d="M8893 7718 c4 -18 18 -114 33 -213 142 -968 182 -1218 189 -1191 13
46 -1 158 -98 811 -83 551 -95 620 -111 623 -16 3 -18 -1 -13 -30z"/>
</g>
</svg>
