<?xml version="1.0" encoding="iso-8859-1"?>
<!-- Generator: Adobe Illustrator 19.0.0, SVG Export Plug-In . SVG Version: 6.00 Build 0)  -->
<svg version="1.1" id="Capa_1" xmlns="http://www.w3.org/2000/svg" xmlns:xlink="http://www.w3.org/1999/xlink" x="0px" y="0px"
	 viewBox="0 0 207.64 207.64" style="enable-background:new 0 0 207.64 207.64;" xml:space="preserve">
<g>
	<g>
		<path d="M205.795,106.097l-21.123-10.749l10.746-21.128c0.644-1.266,0.427-2.8-0.545-3.837c-0.971-1.037-2.485-1.355-3.792-0.797
			l-31.219,13.36c-4.018-9.925-10.982-18.274-20.332-24.286c-10.175-6.545-22.489-9.916-35.66-9.745h-0.003
			c-0.014,0-0.029,0-0.043,0c-0.018,0-0.034,0-0.052,0h-0.004c-13.158-0.164-25.484,3.2-35.659,9.745
			c-9.349,6.013-16.318,14.36-20.336,24.285L16.559,69.587c-1.306-0.558-2.822-0.24-3.792,0.797
			c-0.971,1.037-1.188,2.57-0.544,3.837l10.746,21.128L1.844,106.098c-1.225,0.623-1.949,1.926-1.832,3.295
			c0.117,1.369,1.052,2.531,2.365,2.937l17.593,5.444l-7.383,15.247c-0.634,1.309-0.358,2.878,0.686,3.891
			c0.645,0.627,1.494,0.954,2.353,0.954c0.53,0,1.064-0.125,1.556-0.381l29.774-15.489c7.669,21.631,28.852,36.354,55.254,36.722
			c0.016,0,0.032,0,0.048,0c0.229,0,0.453-0.023,0.669-0.067c0.193,0.038,0.391,0.063,0.594,0.066
			c0.566,0.01,1.128,0.015,1.689,0.015c17.513,0,32.1-4.946,42.263-14.349c6.346-5.872,10.93-13.395,13.597-22.185l29.386,15.287
			c0.492,0.256,1.026,0.381,1.557,0.381c0.858,0,1.708-0.327,2.353-0.954c1.043-1.014,1.32-2.582,0.687-3.891l-7.383-15.249
			l17.593-5.444c1.312-0.405,2.248-1.567,2.365-2.937C207.743,108.022,207.02,106.72,205.795,106.097z M181.922,112.484
			c-0.94,0.291-1.706,0.978-2.099,1.879c-0.392,0.902-0.371,1.932,0.059,2.816l4.656,9.619l-21.618-11.247
			c-0.073-0.038-0.149-0.07-0.225-0.103c0.526-2.896,0.869-5.901,1.02-9.011c0.089-1.862-1.348-3.444-3.209-3.533
			c-1.865-0.094-3.443,1.348-3.533,3.208c-1.426,29.723-20.875,46.43-53.331,45.855c-0.02,0-0.041,0-0.062,0
			c-0.229,0-0.452,0.022-0.669,0.065c-0.197-0.039-0.4-0.062-0.607-0.065c-28.666-0.399-50.382-19.684-51.638-45.855
			c-0.089-1.861-1.684-3.296-3.533-3.208c-1.862,0.088-3.299,1.67-3.209,3.533c0.147,3.063,0.541,6.042,1.158,8.924l-21.982,11.437
			l4.657-9.619c0.429-0.885,0.45-1.914,0.058-2.816c-0.392-0.901-1.158-1.588-2.098-1.879l-13.396-4.145l16.716-8.506
			c1.661-0.846,2.322-2.877,1.477-4.538l-8.057-15.841l25.93,11.098c3.718,1.562,4.503-1.958,4.533-2.051
			c0.001-0.004,0.004-0.007,0.005-0.011c6.581-20.283,26.534-33.183,50.846-32.826c0.015,0.001,0.031,0.001,0.046,0.001h0.003h0.001
			c0.015,0,0.031,0,0.046-0.001c24.306-0.324,44.267,12.542,50.847,32.826c0.463,1.427,2.47,3.099,4.514,2.069
			c0.008-0.003,25.955-11.105,25.955-11.105l-8.057,15.841c-0.846,1.661-0.185,3.693,1.477,4.538l16.716,8.506L181.922,112.484z"/>
	</g>
</g>
<g>
</g>
<g>
</g>
<g>
</g>
<g>
</g>
<g>
</g>
<g>
</g>
<g>
</g>
<g>
</g>
<g>
</g>
<g>
</g>
<g>
</g>
<g>
</g>
<g>
</g>
<g>
</g>
<g>
</g>
</svg>
