<?xml version="1.0" encoding="iso-8859-1"?>
<!-- Generator: Adobe Illustrator 16.0.0, SVG Export Plug-In . SVG Version: 6.00 Build 0)  -->
<!DOCTYPE svg PUBLIC "-//W3C//DTD SVG 1.1//EN" "http://www.w3.org/Graphics/SVG/1.1/DTD/svg11.dtd">
<svg version="1.1" id="Capa_1" xmlns="http://www.w3.org/2000/svg" xmlns:xlink="http://www.w3.org/1999/xlink" x="0px" y="0px"
	 width="611.982px" height="611.982px" viewBox="0 0 611.982 611.982" style="enable-background:new 0 0 611.982 611.982;"
	 xml:space="preserve">
<g>
	<path d="M590.878,429.648c-0.695-1.157-16.632-28.742-6.749-68.88c3.17-12.894,8.815-23.987,14.264-34.726
		c12.769-25.108,25.965-51.073-7.924-82.557c-12.768-11.86-6.642-50.485-1.674-67.349l6.535-22.224l-167.945,67.545
		c-29.08-33.087-74.009-52.8-122.179-52.8c-47.814,0-92.636,19.553-121.716,52.355L16.594,153.913l6.607,22.26
		c4.986,16.828,11.13,55.436-1.71,67.331c-33.87,31.502-20.657,57.448-7.907,82.558c5.467,10.737,11.112,21.832,14.282,34.725
		c9.866,39.996-5.948,67.527-6.731,68.845L3.879,458.069l182.031-71.783c29.045,31.377,72.958,50.076,119.294,50.076
		c46.71,0,90.749-18.858,119.776-50.503l182.564,71.942L590.878,429.648z M562.492,191.327c-2.137,13.178-3.401,30.166,0.071,45.036
		L455.716,268.56c-3.045-10.079-7.337-19.838-13.018-29.062L562.492,191.327z M169.313,239.497
		c-5.681,9.225-9.972,18.983-13.017,29.062L49.432,236.345c3.473-14.869,2.208-31.839,0.071-45.018L169.313,239.497z
		 M36.771,259.958c1.033-0.962,1.781-2.119,2.689-3.17l112.51,33.888c-0.41,4.042-0.837,8.067-0.837,12.163
		c0,6.535,0.677,12.982,1.745,19.357L42.683,334.911c-2.92-6.838-6.108-13.142-9.1-19.019
		C21.402,291.941,15.294,279.92,36.771,259.958z M50.056,415.74c3.579-14.763,5.449-35.206-0.178-59.068l109.019-12.571
		c3.099,8.298,6.838,16.4,11.771,24.094L50.056,415.74z M305.206,415.135c-40.21,0-78.158-15.938-103.232-42.702l-5.04-6.197
		c-15.297-18.787-23.382-40.709-23.382-63.396c0-21.992,7.55-43.291,21.832-61.597l0.801-1.033l0.071,0.054
		c24.593-30.772,65.319-49.149,108.948-49.149c44.236,0,85.282,18.752,109.803,50.129c14.282,18.289,21.832,39.587,21.832,61.597
		c0,22.688-8.085,44.608-23.382,63.396l0.463,0.374C389.134,396.989,348.496,415.135,305.206,415.135z M441.328,368.194
		c4.951-7.675,8.689-15.796,11.771-24.094l109.02,12.571c-5.627,23.88-3.757,44.307-0.178,59.068L441.328,368.194z M569.331,334.911
		l-110.195-12.715c1.068-6.375,1.745-12.822,1.745-19.375c0-4.078-0.427-8.12-0.854-12.146l112.51-33.905
		c0.89,1.051,1.656,2.208,2.671,3.17c21.494,19.979,15.368,32.001,3.205,55.952C575.421,321.77,572.233,328.073,569.331,334.911z"/>
</g>
<g>
</g>
<g>
</g>
<g>
</g>
<g>
</g>
<g>
</g>
<g>
</g>
<g>
</g>
<g>
</g>
<g>
</g>
<g>
</g>
<g>
</g>
<g>
</g>
<g>
</g>
<g>
</g>
<g>
</g>
</svg>
