<svg xmlns="http://www.w3.org/2000/svg" viewBox="0 0 87 115" version="1.1" x="0px" y="0px">
  <g stroke="none" stroke-width="1" fill="none" fill-rule="evenodd">
    <g transform="translate(-42.000000, -485.000000)" fill="#000000">
      <path
        d="M75.69,554 C74.6,554.12 74,555.29 73.64,556.32 C72.2150301,560.389234 71.5770266,564.692364 71.76,569 C71.86,571.36 72.19,573.86 71.18,576 C71.034955,576.409012 70.7220002,576.736523 70.32,576.9 C69.59,577.1 68.99,576.33 68.62,575.67 L63.62,566.67 C63.07,565.67 61.44,566.3 60.93,567.31 C60.42,568.32 60.43,569.57 59.77,570.49 C59.11,571.41 57.23,571.41 57.2,570.28 C56.9503212,566.470989 56.279566,562.701345 55.2,559.04 C54.94,558.04 54.57,556.86 53.59,556.48 C53.0726984,556.331415 52.5270284,556.310824 52,556.42 L43.47,557.37 C42.26,557.51 41.6,555.66 42.27,554.59 C43.0844776,553.607658 44.2227051,552.948125 45.48,552.73 C51.4924341,550.794325 57.4003771,548.547972 63.18,546 C63.794819,545.819418 64.348264,545.473515 64.78,545 C64.9779025,544.746839 65.0669781,544.425356 65.0275833,544.106446 C64.9881884,543.787535 64.823559,543.497392 64.57,543.3 C62.4075422,542.009981 61.4373251,539.386647 62.24,537 C62.875352,535.586475 63.8182904,534.33264 65,533.33 L85.78,513.23 C87.57,511.5 89.44,509.71 91.78,508.96 C94.12,508.21 97.16,508.84 98.33,511.04 C98.5545363,511.333302 98.893243,511.517236 99.2615136,511.545859 C99.6297842,511.574481 99.9928428,511.445087 100.26,511.19 C100.788964,510.640539 101.137809,509.942848 101.26,509.19 L106.83,487.62 C106.946685,486.730905 107.358735,485.906805 108,485.28 C108.72,484.75 110,484.99 110.17,485.88 L111.87,496.88 C111.881994,497.899491 112.343022,498.861795 113.13,499.51 C113.701695,499.773211 114.334936,499.873561 114.96,499.8 L122.96,499.58 C124.27,499.58 124.96,501.33 124.43,502.52 C123.735903,503.654738 122.678718,504.521629 121.43,504.98 C120.43,505.51 120.87,507.27 121.94,507.75 C123.01,508.23 124.25,507.93 125.42,507.84 C126.59,507.75 128,508.03 128.42,509.12 C128.711367,510.070206 128.350722,511.099463 127.53,511.66 C126.719784,512.183795 125.805297,512.525021 124.85,512.66 L112,515.51 C110.914827,515.650694 109.882845,516.063487 109,516.71 C108.123972,517.404341 107.897366,518.639987 108.47,519.6 C109.53,520.96 110.64,522.52 110.47,524.23 C110.205407,525.536683 109.561994,526.736561 108.62,527.68 C101.297416,536.520694 93.3646768,544.837707 84.88,552.57 C83.05,554.23 80.6,556 78.33,555 C77.44,554.63 76.64,553.85 75.69,554 L75.69,554 Z M67.45,541.6 C70.2796666,544.728003 73.5189634,547.459373 77.08,549.72 C78.37,550.54 79.88,551.32 81.36,550.97 C82.3809505,550.623659 83.2918742,550.012927 84,549.2 C91.1933333,542.26 98.1366667,535.073333 104.83,527.64 C105.667538,526.893544 106.2191,525.87881 106.39,524.77 C106.266939,523.52527 105.642306,522.384321 104.66,521.61 C101.827262,518.791528 98.5920417,516.408923 95.06,514.54 C93.35,513.64 91.06,512.92 89.65,514.23 C81.8833333,521.41 74.4133333,528.933333 67.24,536.8 C66.7024994,537.292947 66.3144027,537.927069 66.12,538.63 C65.93,539.74 66.7,540.76 67.45,541.63 L67.45,541.6 Z M59.67,562.81 C60.346761,562.96766 61.0483101,562.673332 61.41,562.08 C61.7496835,561.495719 62.1593763,560.955059 62.63,560.47 C63.16,560.05 64.09,560.02 64.39,560.62 L67,566 C67.45,566.92 68.28,568 69.24,567.66 L71.8,552.66 C72.0788959,551.816569 71.8583513,550.88796 71.23,550.26 C70.11,548.83 68.58,547.26 66.8,547.62 C64.0381377,548.225523 61.3319721,549.061792 58.71,550.12 C58.1722874,550.264778 57.7192815,550.627183 57.46,551.12 C57.3869237,551.425693 57.3869237,551.744307 57.46,552.05 L58.75,561.1 C58.85,561.78 59.03,562.58 59.67,562.83 L59.67,562.81 Z M109.12,512.31 C110.805241,512.39144 112.492757,512.205813 114.12,511.76 C114.78,511.62 115.63,511.19 115.43,510.54 C114.888262,508.444012 115.989209,506.272103 118,505.47 C118.59,505.25 118.55,504.32 118.06,503.92 C117.524873,503.581158 116.888272,503.439691 116.26,503.52 L111.85,503.58 C111.123393,503.679443 110.386285,503.496955 109.79,503.07 C109.04,502.36 109.27,501.15 109.4,500.13 C109.638899,498.533825 109.501932,496.90392 109,495.37 C108.81,494.82 108.4,494.19 107.82,494.29 C107.24,494.39 107.13,494.88 106.98,495.29 C105.132641,500.74104 103.973663,506.401557 103.53,512.14 C103.431229,512.758597 103.455013,513.390577 103.6,514 C103.771463,514.615616 104.273685,515.083068 104.9,515.21 C106.7,515.47 107.33,512.12 109.12,512.31 L109.12,512.31 Z"/>
    </g>
  </g>
</svg>