<svg xmlns="http://www.w3.org/2000/svg" fill="red" viewBox="0 0 1024 1024"><title>AMP BLACK 5</title><g id="Layer_2" data-name="Layer 2"><g id="Layer_5" data-name="Layer 5"><path d="M512,0C229.23,0,0,229.23,0,512s229.23,512,512,512,512-229.23,512-512S794.77,0,512,0Zm0,1007.85C238.59,1007.85,16.16,785.41,16.16,512S238.59,16.16,512,16.16,1007.84,238.59,1007.84,512,785.41,1007.85,512,1007.85Zm0-980.13C245,27.72,27.72,245,27.72,512S245,996.28,512,996.28,996.28,779,996.28,512,779,27.72,512,27.72ZM313.75,413.8c86.46-167.43,198.13-272,198.13-272l.32.32c3.46,3.31,33.4,31.49,75.14,83.62-53.71,30.87-136.57,88.84-221,170.59-34.49,33.54-69,78.28-95.16,112.3C282.22,480.58,299.1,442.31,313.75,413.8ZM511.88,617.45c-43,12.91-88.67,31.34-131.2,50.71-14.64,6.62-29,13.39-42.68,20.16-73.24,35.28-128.68,67.89-128.68,67.89s1.89-18.9,7.56-50.09c1-5.2,2.05-10.87,3.15-16.7,5.07-25.43,12.21-56.79,22.13-91.6A259.53,259.53,0,0,1,286,510.94a967.1,967.1,0,0,1,91.38-103.28c83.79-81.28,187.54-139.81,228.28-158.46,34.81,44.88,68.61,95.14,104.52,164.6,13.54,26.14,25.35,52.6,35.75,78.43,11,27.41,20.32,54.34,28,79.7.79,2.05,1.26,3.94,1.89,5.83h-1.26c-4.88.31-10.08.47-15.75.78C698.52,581.85,599.45,591,511.88,617.45Zm19.81,4.69C664.63,592.95,783,602.6,783,602.6c27.09,93.4,31.69,153.61,31.69,153.61S662.58,667.19,531.69,622.14Z"/></g></g></svg>